<svg width="96" height="96" xmlns="http://www.w3.org/2000/svg" xmlns:xlink="http://www.w3.org/1999/xlink" xml:space="preserve" overflow="hidden"><defs><clipPath id="clip0"><rect x="821" y="333" width="96" height="96"/></clipPath></defs><g clip-path="url(#clip0)" transform="translate(-821 -333)"><path d="M907.86 367.34C907.333 365.815 906.19 364.581 904.71 363.94 899.25 361.41 887.71 364.66 880.91 366.94 882.33 365.02 883.437 362.887 884.19 360.62 885.66 356.2 888.19 355.99 888.29 355.99 889.395 355.99 890.29 355.095 890.29 353.99 890.29 352.885 889.395 351.99 888.29 351.99 888.07 351.99 882.82 352.07 880.39 359.36 879.805 361.1 878.973 362.747 877.92 364.25 877.582 363.206 876.987 362.264 876.19 361.51 876.864 360.844 877.257 359.946 877.29 359 877.29 357.34 875.98 355.87 873.99 355L876.63 349.71C877.114 349.038 876.962 348.1 876.29 347.616 875.618 347.132 874.681 347.284 874.196 347.956 874.114 348.07 874.047 348.197 874 348.33L871.1 354.13C869.933 353.957 868.747 353.957 867.58 354.13L864.68 348.33C864.273 347.608 863.359 347.353 862.637 347.759 861.965 348.138 861.69 348.964 862 349.67L864.59 355C862.59 355.91 861.29 357.38 861.29 359 861.329 360.08 861.823 361.094 862.65 361.79 862.096 362.372 861.652 363.05 861.34 363.79 860.433 362.417 859.71 360.931 859.19 359.37 856.76 352.08 851.51 352 851.29 352 850.185 352 849.29 352.895 849.29 354 849.29 355.105 850.185 356 851.29 356 851.4 356 853.98 356.21 855.45 360.63 856.247 363.075 857.447 365.37 859 367.42 852.57 365.14 839.7 361.23 833.85 363.94 832.37 364.581 831.227 365.815 830.7 367.34 829.05 372.29 831.57 379.18 836.55 383.34 839.658 385.989 843.616 387.43 847.7 387.4 850.917 387.353 854.086 386.624 857 385.26 857 385.59 856.94 385.91 856.92 386.26L856.92 386.26C856.92 386.96 856.86 387.67 856.86 388.38 856.86 388.92 856.86 389.47 856.94 390.01L851.46 390.01 844.37 397.1C843.595 397.88 843.595 399.14 844.37 399.92 844.746 400.298 845.257 400.51 845.79 400.51 846.32 400.508 846.827 400.296 847.2 399.92L853.12 394 857.56 394C857.63 394.34 857.69 394.62 857.69 394.65 857.81 395.14 857.94 395.65 858.08 396.13L858.17 396.44C858.29 396.87 858.43 397.3 858.58 397.73 857.147 401.931 854.541 405.633 851.07 408.4 850.186 409.063 850.007 410.316 850.67 411.2 851.333 412.084 852.586 412.263 853.47 411.6 856.489 409.267 858.944 406.283 860.65 402.87 861.1 403.87 861.58 404.78 862.06 405.66L862.06 405.66C862.26 406.02 862.46 406.353 862.66 406.66L862.77 406.85C862.93 407.13 863.1 407.41 863.27 407.69L863.42 407.93 863.9 408.69 864.05 408.92 864.64 409.81 864.85 410.1 865.22 410.63 865.51 411.02 865.79 411.39 866.09 411.78 866.34 412.09 866.63 412.45 866.87 412.73 867.15 413.04C867.24 413.15 867.34 413.25 867.43 413.35 867.52 413.45 867.66 413.6 867.78 413.71L868.06 413.99 868.23 414.14 868.48 414.36 868.63 414.48 868.87 414.64 868.99 414.72 869.21 414.84 869.29 414.84C869.373 414.852 869.457 414.852 869.54 414.84L869.54 414.84C869.61 414.847 869.68 414.847 869.75 414.84L869.87 414.78C869.927 414.756 869.98 414.726 870.03 414.69L870.21 414.58 870.36 414.47 870.59 414.29C870.624 414.251 870.661 414.214 870.7 414.18 871.271 413.667 871.802 413.112 872.29 412.52L872.29 412.52 872.72 412 872.81 411.88 873.24 411.33 873.36 411.17 873.79 410.59 873.9 410.43 874.58 409.43 875 409 875.21 408.66C875.35 408.447 875.49 408.227 875.63 408L875.81 407.72 876.31 406.89 876.4 406.73C877.09 405.55 877.76 404.28 878.4 402.95 880.102 406.323 882.538 409.272 885.53 411.58 886.414 412.243 887.667 412.064 888.33 411.18 888.993 410.296 888.814 409.043 887.93 408.38 884.499 405.651 881.915 402.003 880.48 397.86 880.907 396.595 881.261 395.306 881.54 394L885.86 394 891.78 399.91C892.153 400.286 892.66 400.498 893.19 400.5 893.723 400.5 894.234 400.288 894.61 399.91 895.385 399.13 895.385 397.87 894.61 397.09L887.52 390 882.13 390C882.13 389.46 882.19 388.91 882.19 388.37 882.19 387.37 882.19 386.44 882.09 385.5 884.856 386.731 887.843 387.388 890.87 387.43 894.947 387.455 898.897 386.014 902 383.37 907 379.18 909.51 372.29 907.86 367.34ZM858.78 376.52C858.61 377 858.46 377.52 858.31 378 858.31 378.11 858.24 378.23 858.21 378.35 858.07 378.857 857.94 379.377 857.82 379.91 857.82 380.03 857.82 380.14 857.74 380.26L857.74 380.26 856.84 380.9C847.79 385.72 841.84 382.6 839.13 380.3 834.96 376.8 833.51 371.6 834.51 368.59 834.683 368.128 835.048 367.763 835.51 367.59 836.625 367.159 837.816 366.965 839.01 367.02 844.86 367.02 854.52 369.92 860.62 372.32L860.21 373.05 860.12 373.23C859.91 373.66 859.7 374.1 859.51 374.56L859.39 374.81C859.203 375.27 859.023 375.74 858.85 376.22 858.85 376.31 858.81 376.41 858.78 376.52ZM875.66 403.91C873.653 404.323 871.609 404.531 869.56 404.53 867.48 404.534 865.405 404.32 863.37 403.89 862.554 402.353 861.826 400.77 861.19 399.15 863.885 400.068 866.713 400.535 869.56 400.53 872.383 400.537 875.188 400.074 877.86 399.16 877.217 400.784 876.482 402.37 875.66 403.91ZM879.94 391.67C873.232 394.148 865.859 394.148 859.15 391.67 858.987 390.577 858.904 389.475 858.9 388.37 858.9 387.99 858.9 387.61 858.9 387.24 865.663 390.287 873.407 390.287 880.17 387.24 880.17 387.61 880.17 387.98 880.17 388.36 880.173 389.467 880.096 390.574 879.94 391.67ZM899.44 380.31C896.71 382.61 890.79 385.73 881.73 380.91L881.44 380.7C880.871 377.696 879.824 374.803 878.34 372.13 886 369.13 898.71 365.57 903.03 367.57 903.492 367.743 903.857 368.108 904.03 368.57 905.07 371.61 903.61 376.81 899.44 380.31Z"/></g></svg>